<svg width="128" height="128" viewBox="0 0 128 128" fill="none" xmlns="http://www.w3.org/2000/svg">
  <path d="M20 60L64 24l44 36v56H20V60Z" fill="#1E88E5" stroke="#1E88E5" stroke-width="4" stroke-linejoin="round"/>
  <path d="M70 52h-8l6-16H54l-8 28h10l-6 28 28-40H70z" fill="white"/>
  <circle cx="98" cy="98" r="18" fill="#111"/>
  <path d="M98 112c-6.4 0-11-3.4-11-9h6c0 2.6 1.8 4.2 5 4.2 3 0 4.8-1.2 4.8-3.6 0-2.8-2.6-3.2-6.2-3.8-4.6-.8-9.4-2-9.4-7.6 0-5.2 4.6-8.2 10.2-8.4V80h4.8v3.8c5 .6 8.6 3.2 8.6 8.2h-6c0-2.6-1.6-4.2-4.6-4.2-3 0-4.8 1.2-4.8 3.4 0 2.6 2.6 3 6.2 3.6 4.6.8 9.4 2 9.4 7.8 0 5.4-4.6 8.6-10.4 8.8V112H98Z" fill="white"/>
</svg>
