<svg xmlns="http://www.w3.org/2000/svg" viewBox="0 0 512 512" role="img" aria-labelledby="title desc">
  <title id="title">Wattwise Home Savings Logo</title>
  <desc id="desc">A green house with a lightning bolt and a dark coin showing a dollar sign.</desc>
  <defs>
    <linearGradient id="houseGradient" x1="0" x2="0" y1="0" y2="1">
      <stop offset="0%" stop-color="#4CAF50"/>
      <stop offset="100%" stop-color="#45A145"/>
    </linearGradient>
  </defs>
  <rect width="512" height="512" fill="none" />
  <g transform="translate(40 30)">
    <path d="M216 12a16 16 0 0 1 20 0l180 140a16 16 0 0 1 6 12v236a16 16 0 0 1-16 16H46a16 16 0 0 1-16-16V164a16 16 0 0 1 6-12Z" fill="url(#houseGradient)" stroke="#2f6b32" stroke-width="18" stroke-linejoin="round" />
    <path d="M208 450V300h-56l92-170v120h64l-100 200" fill="#f5fbff" stroke="#e8f2f9" stroke-width="10" stroke-linejoin="round" />
    <circle cx="360" cy="344" r="96" fill="#1f1f1f" />
    <text x="360" y="380" text-anchor="middle" fill="#f5f5f5" font-size="120" font-family="'Arial Black', Arial, sans-serif" font-weight="700">$</text>
  </g>
</svg>
